<svg xmlns="http://www.w3.org/2000/svg" xmlns:xlink="http://www.w3.org/1999/xlink" version="1.1" id="Layer_1" x="0px" y="0px" width="100px" height="100px" viewBox="0 0 100 100" enable-background="new 0 0 100 100" xml:space="preserve">
<path d="M84.829,15.36H15.172C12.32,15.36,10,17.677,10,20.525v47.011c0,2.848,2.32,5.167,5.172,5.167h69.657  c2.851,0,5.171-2.319,5.171-5.167V20.525C90,17.677,87.68,15.36,84.829,15.36z M86.718,59H13.283V18.639h73.435V59z"/>
<path d="M57.264,73.979c-2.29,0-12.235,0-14.527,0c0,7.477-2.819,7.692-10.473,7.692c0,1.215,0,2.969,0,2.969h17.737h17.738  c0,0,0-1.754,0-2.969C60.087,81.671,57.264,81.455,57.264,73.979z"/>
</svg>