<svg xmlns="http://www.w3.org/2000/svg" xmlns:xlink="http://www.w3.org/1999/xlink" version="1.1" baseProfile="tiny" id="Layer_1" x="0px" y="0px" width="61.834px" height="91.962px" viewBox="389.579 549.189 61.834 91.962" xml:space="preserve">
<path d="M447.273,549.189h-53.554c-2.286,0-4.14,1.854-4.14,4.139v83.683c0,2.285,1.854,4.141,4.14,4.141h53.554  c2.285,0,4.141-1.854,4.141-4.141v-83.683C451.414,551.043,449.558,549.189,447.273,549.189z M420.477,553.315  c0.373,0,0.675,0.302,0.675,0.675c0,0.372-0.303,0.674-0.675,0.674s-0.675-0.302-0.675-0.674S420.104,553.315,420.477,553.315z   M420.487,639.226c-1.344,0-2.433-1.088-2.433-2.432s1.089-2.434,2.433-2.434c1.343,0,2.435,1.09,2.435,2.434  S421.832,639.226,420.487,639.226z M448.652,631.982c0,0.127-0.102,0.229-0.229,0.229h-55.652c-0.127,0-0.23-0.102-0.23-0.229  v-73.681c0-0.126,0.103-0.229,0.23-0.229h55.652c0.127,0,0.229,0.104,0.229,0.229V631.982z"/>
</svg>